<svg width="20" height="12" viewBox="0 0 20 12" fill="none" xmlns="http://www.w3.org/2000/svg">
<path d="M19.4582 4.78017L15.8364 1.06311C15.3393 0.581268 14.5581 0.581268 14.061 0.994275C13.5639 1.47612 13.5639 2.2333 13.99 2.71514L16.0494 4.84901H1.27827C0.568121 4.84901 0 5.39969 0 6.08803C0 6.77638 0.568121 7.32705 1.27827 7.32705H16.1204L14.061 9.46092C13.5639 9.94276 13.6349 10.6999 14.132 11.1818C14.3451 11.3883 14.7001 11.526 14.9842 11.526C15.3393 11.526 15.6233 11.3883 15.9074 11.1818L19.5292 7.46472C20.1683 6.63871 20.1683 5.53735 19.4582 4.78017Z" fill="#45525B"/>
</svg>
